# xmcd
#
# Track frame offsets: 
#        150
#        14596
#        28354
#        42937
#        57770
#        71314
#        85747
#        99620
#        112769
#        127031
#        140066
#        151350
#        163999
#        179233
#        191608
#        204119
#        215433
#        227256
#
# Disc length: 3211 seconds
#
# Revision: 1
# Processed by: cddbd v1.5.2PL0 Copyright (c) Steve Scherf et al.
# Submitted via: ExactAudioCopy v0.95b2
#
DISCID=fc0c8912
DTITLE=Blind Blake - The Essential Disc 1
DYEAR=2002
DGENRE=Blues
TTITLE0=West Coast Blues
TTITLE1=Early Morning Blues
TTITLE2=Hastings Street
TTITLE3=I Was Afraid Of That - Part 2
TTITLE4=Blind Arthur's Breakdown
TTITLE5=Hey Hey Daddy Blues
TTITLE6=Sea Board Stomp
TTITLE7=Panther Squall Blues
TTITLE8=Pay Day Daddy Blues
TTITLE9=Police Dog Blues
TTITLE10=Champagne Charlie Is My Name
TTITLE11=Goodbye Mama Moan
TTITLE12=Southern Rag
TTITLE13=He's In The Jailhouse Now
TTITLE14=Come On Boys Let's Do That Messin' Around
TTITLE15=Let Your Love Come Down
TTITLE16=Hard Pushing Papa
TTITLE17=Hot Potatoes
EXTD=
EXTT0=
EXTT1=
EXTT2=
EXTT3=
EXTT4=
EXTT5=
EXTT6=
EXTT7=
EXTT8=
EXTT9=
EXTT10=
EXTT11=
EXTT12=
EXTT13=
EXTT14=
EXTT15=
EXTT16=
EXTT17=
PLAYORDER=
